<svg id="SvgjsSvg1001" width="288" height="288" xmlns="http://www.w3.org/2000/svg" version="1.1" xmlns:xlink="http://www.w3.org/1999/xlink" xmlns:svgjs="http://svgjs.com/svgjs"><defs id="SvgjsDefs1002"></defs><g id="SvgjsG1008" transform="matrix(1,0,0,1,0,0)"><svg xmlns="http://www.w3.org/2000/svg" enable-background="new 0 0 47.5 47.5" viewBox="0 0 47.5 47.5" width="288" height="288"><defs><clipPath id="a" clipPathUnits="userSpaceOnUse"><path d="M 0,38 38,38 38,0 0,0 0,38 Z" fill="#000000" class="color000 svgShape"></path></clipPath></defs><g clip-path="url(#a)" transform="matrix(1.25 0 0 -1.25 0 47.5)" fill="#000000" class="color000 svgShape"><path fill="#004c3f" d="m 0,0 c 0,-2.209 -1.791,-4 -4,-4 l -28,0 c -2.209,0 -4,1.791 -4,4 l 0,28 c 0,2.209 1.791,4 4,4 l 28,0 c 2.209,0 4,-1.791 4,-4 L 0,0 Z" transform="translate(37 5)" class="color3b88c3 svgShape"></path><path fill="#ffffff" d="m 0,0 c 1.953,0 2.729,-0.992 2.729,-2.977 0,-5.983 -3.907,-10.48 -10.108,-10.48 -6.294,0 -10.666,4.993 -10.666,11.411 0,6.449 4.34,11.41 10.666,11.41 4.682,0 8.525,-2.201 8.525,-4.372 0,-1.333 -0.835,-2.17 -1.921,-2.17 -2.108,0 -2.542,2.263 -6.604,2.263 -3.876,0 -5.829,-3.379 -5.829,-7.131 0,-3.783 1.891,-7.132 5.829,-7.132 2.449,0 5.272,1.365 5.272,4.899 l -3.164,0 c -1.271,0 -2.17,0.9 -2.17,2.171 0,1.302 0.992,2.108 2.17,2.108 L 0,0 Z" transform="translate(26.66 21.084)" class="colorfff svgShape"></path></g></svg></g></svg>