<svg id="SvgjsSvg1001" width="288" height="288" xmlns="http://www.w3.org/2000/svg" version="1.1" xmlns:xlink="http://www.w3.org/1999/xlink" xmlns:svgjs="http://svgjs.com/svgjs"><defs id="SvgjsDefs1002"></defs><g id="SvgjsG1008" transform="matrix(1,0,0,1,0,0)"><svg xmlns="http://www.w3.org/2000/svg" width="288" height="288" viewBox="0 0 16 16"><path d="M 7.140625 3 C 5.4141605 3 3.9921875 4.4220375 3.9921875 6.1484375 L 3.9921875 9.8554688 C 3.9921875 11.581869 5.4140485 13 7.140625 13 L 8.84375 13 C 10.418662 13 11.72728 11.816349 11.947266 10.298828 A 1.00009 1.00009 0 0 0 11.992188 9.9882812 L 11.992188 9.8554688 L 11.992188 8.015625 A 1.00009 1.00009 0 0 0 11.90625 7.5957031 A 1.00009 1.00009 0 0 0 11.876953 7.5351562 A 1.00009 1.00009 0 0 0 11.871094 7.5234375 A 1.00009 1.00009 0 0 0 11.84375 7.4785156 A 1.00009 1.00009 0 0 0 11.337891 7.0625 A 1.00009 1.00009 0 0 0 11.324219 7.0585938 A 1.00009 1.00009 0 0 0 11.160156 7.015625 A 1.00009 1.00009 0 0 0 11.115234 7.0097656 A 1.00009 1.00009 0 0 0 11.044922 7.0019531 A 1.00009 1.00009 0 0 0 10.984375 7 A 1.00009 1.00009 0 0 0 10.976562 7 L 9.0078125 7 A 1.00009 1.00009 0 1 0 9.0078125 9 L 9.9921875 9 L 9.9921875 9.8554688 C 9.9921875 10.508469 9.4967819 11 8.84375 11 L 7.140625 11 C 6.4875931 11 5.9921875 10.508469 5.9921875 9.8554688 L 5.9921875 6.1484375 C 5.9921875 5.4954375 6.4874811 5 7.140625 5 L 10.992188 5 A 1.00009 1.00009 0 1 0 10.992188 3 L 7.140625 3 z " color="#000" enable-background="accumulate" font-family="sans-serif" font-weight="400" overflow="visible" style="line-height:normal;text-indent:0;text-align:start;text-decoration-line:none;text-decoration-style:solid;text-decoration-color:#000;text-transform:none;block-progression:tb;white-space:normal;isolation:auto;mix-blend-mode:normal;solid-color:#000;solid-opacity:1" fill="#004c3f" class="color000 svgShape"></path></svg></g></svg>