<svg id="svg" version="1.1" xmlns="http://www.w3.org/2000/svg" xmlns:xlink="http://www.w3.org/1999/xlink" width="400" height="400" viewBox="0, 0, 400,400"><g id="svgg"><path id="path0" d="M106.500 58.887 C 96.225 61.084,87.756 69.691,85.646 80.083 C 84.704 84.721,84.808 299.599,85.754 304.167 C 90.010 324.714,104.802 338.442,125.774 341.310 C 127.574 341.556,157.276 341.667,221.691 341.667 L 315.000 341.667 315.000 220.333 L 315.000 99.000 308.500 99.000 L 302.000 99.000 302.000 212.173 L 302.000 325.347 215.083 325.236 C 147.053 325.150,127.768 325.035,126.333 324.709 C 109.634 320.911,100.949 309.831,101.765 293.361 C 102.460 279.339,110.720 270.226,125.254 267.450 C 129.014 266.732,158.222 266.364,157.819 267.040 C 157.668 267.293,155.920 269.938,153.934 272.917 L 150.324 278.333 200.015 278.333 C 239.678 278.333,249.656 278.249,249.458 277.917 C 249.322 277.688,247.586 275.063,245.601 272.083 L 241.990 266.667 261.328 266.667 L 280.667 266.667 280.667 162.500 L 280.667 58.333 194.750 58.361 C 119.794 58.384,108.536 58.451,106.500 58.887 M207.458 226.502 C 211.871 227.272,215.555 228.884,218.750 231.443 C 220.352 232.727,220.323 233.211,218.534 234.967 L 217.067 236.406 215.264 235.044 C 199.950 223.482,177.865 237.704,183.204 255.689 C 186.696 267.452,200.751 273.336,212.000 267.743 L 214.500 266.500 214.682 258.333 C 214.895 248.715,214.487 249.950,217.417 250.069 L 219.833 250.167 219.922 259.384 L 220.010 268.602 218.385 269.796 C 205.927 278.940,186.457 274.819,179.815 261.631 C 170.357 242.849,186.145 222.785,207.458 226.502 M131.728 289.634 C 125.851 291.663,125.508 298.582,131.153 301.211 L 132.833 301.993 206.750 301.997 L 280.667 302.000 280.667 295.500 L 280.667 289.000 207.083 289.011 C 136.565 289.021,133.426 289.047,131.728 289.634 " stroke="none" fill="#ec7424" fill-rule="evenodd"></path><path id="path1" d="M197.610 226.674 C 172.884 230.847,169.934 264.879,193.591 273.039 C 201.424 275.741,212.351 274.155,218.583 269.412 L 219.667 268.588 219.667 259.460 L 219.667 250.333 217.339 250.333 L 215.012 250.333 214.923 258.394 L 214.833 266.454 213.263 267.376 C 198.237 276.202,179.759 263.572,182.647 246.448 C 185.013 232.423,203.456 225.796,215.278 234.722 L 217.078 236.080 218.622 234.520 L 220.167 232.959 218.861 231.850 C 213.651 227.422,205.273 225.381,197.610 226.674 " stroke="none" fill="#e4e2e2" fill-rule="evenodd"></path><path id="path2" d="M216.250 250.241 C 216.846 250.315,217.821 250.315,218.417 250.241 C 219.012 250.167,218.525 250.107,217.333 250.107 C 216.142 250.107,215.654 250.167,216.250 250.241 M201.093 274.579 C 201.970 274.648,203.320 274.647,204.093 274.577 C 204.867 274.507,204.150 274.451,202.500 274.452 C 200.850 274.453,200.217 274.510,201.093 274.579 " stroke="none" fill="#e49e6d" fill-rule="evenodd"></path><path id="path3" d="M203.750 230.896 C 204.071 230.980,204.596 230.980,204.917 230.896 C 205.237 230.813,204.975 230.744,204.333 230.744 C 203.692 230.744,203.429 230.813,203.750 230.896 M219.813 259.500 C 219.812 264.450,219.859 266.521,219.916 264.103 C 219.973 261.685,219.973 257.635,219.916 255.103 C 219.859 252.571,219.813 254.550,219.813 259.500 " stroke="none" fill="#e4ac84" fill-rule="evenodd"></path><path id="path4" d="M201.093 226.245 C 201.970 226.314,203.320 226.313,204.093 226.244 C 204.867 226.174,204.150 226.117,202.500 226.118 C 200.850 226.119,200.217 226.177,201.093 226.245 M177.109 250.167 C 177.111 251.450,177.171 251.934,177.243 251.243 C 177.315 250.551,177.314 249.501,177.241 248.909 C 177.167 248.317,177.108 248.883,177.109 250.167 M214.810 258.333 C 214.810 262.642,214.858 264.404,214.916 262.250 C 214.974 260.096,214.974 256.571,214.916 254.417 C 214.858 252.262,214.810 254.025,214.810 258.333 M201.750 269.896 C 202.071 269.980,202.596 269.980,202.917 269.896 C 203.237 269.813,202.975 269.744,202.333 269.744 C 201.692 269.744,201.429 269.813,201.750 269.896 " stroke="none" fill="#e58848" fill-rule="evenodd"></path></g></svg>