<?xml version="1.0" standalone="no"?>
<!DOCTYPE svg PUBLIC "-//W3C//DTD SVG 20010904//EN"
 "http://www.w3.org/TR/2001/REC-SVG-20010904/DTD/svg10.dtd">
<svg version="1.0" xmlns="http://www.w3.org/2000/svg"
 width="1600.000000pt" height="1304.000000pt" viewBox="0 0 1600.000000 1304.000000"
 preserveAspectRatio="xMidYMid meet">

<g transform="translate(0.000000,1304.000000) scale(0.100000,-0.100000)"
fill="#000000" stroke="none">
<path d="M10680 12663 c-228 -21 -459 -64 -645 -119 -1068 -315 -1905 -1208
-2151 -2294 -49 -218 -65 -360 -71 -615 -6 -258 4 -406 38 -601 11 -66 23
-135 26 -154 l5 -36 -118 8 c-1684 108 -3280 686 -4654 1685 -503 365 -1048
864 -1440 1317 -85 99 -169 195 -186 214 l-30 35 -82 -164 c-228 -460 -331
-895 -332 -1399 0 -562 135 -1075 408 -1555 216 -378 544 -741 895 -989 37
-26 67 -50 67 -53 0 -14 -338 24 -502 57 -281 57 -602 170 -827 293 l-74 41 7
-158 c41 -956 488 -1811 1241 -2376 190 -142 280 -197 485 -300 215 -108 396
-175 630 -234 l135 -34 -44 -12 c-374 -101 -882 -121 -1304 -51 -26 4 -47 4
-47 0 0 -29 97 -264 170 -414 208 -422 494 -777 860 -1066 247 -196 499 -341
794 -458 276 -110 600 -186 871 -206 44 -3 108 -8 143 -11 l63 -6 -103 -77
c-596 -448 -1293 -797 -2002 -1002 -446 -129 -889 -206 -1376 -239 -287 -19
-778 -10 -1029 21 -46 5 -85 8 -87 6 -4 -4 219 -141 396 -243 166 -95 547
-289 735 -373 1460 -656 3023 -898 4681 -726 1709 178 3277 827 4569 1893 374
309 805 739 1123 1120 1136 1363 1875 3084 2076 4837 42 368 51 536 51 966 l0
405 104 80 c326 248 755 652 1002 944 187 220 454 580 431 580 -6 0 -48 -16
-94 -36 -328 -142 -725 -267 -1100 -348 -209 -45 -538 -96 -538 -83 0 2 57 43
128 90 181 121 277 201 438 361 226 226 403 467 545 739 90 175 232 517 214
517 -3 0 -58 -30 -123 -67 -182 -104 -558 -283 -757 -361 -320 -125 -671 -232
-973 -297 l-124 -27 -116 114 c-502 488 -1167 792 -1877 858 -101 9 -441 11
-525 3z"/>
</g>
</svg>
